<?xml version="1.0" standalone="no"?>
<!DOCTYPE svg PUBLIC "-//W3C//DTD SVG 20010904//EN"
 "http://www.w3.org/TR/2001/REC-SVG-20010904/DTD/svg10.dtd">
<svg version="1.0" xmlns="http://www.w3.org/2000/svg"
 width="200.000000pt" height="200.000000pt" viewBox="0 0 200.000000 200.000000"
 preserveAspectRatio="xMidYMid meet">
<metadata>
Created by potrace 1.11, written by Peter Selinger 2001-2013
</metadata>
<g transform="translate(0.000000,200.000000) scale(0.100000,-0.100000)"
fill="#000000" stroke="none">
<path d="M575 1928 c-31 -17 -104 -89 -127 -126 -31 -50 -14 -50 20 0 38 54
101 118 118 118 7 0 16 5 19 10 8 13 -5 12 -30 -2z"/>
<path d="M627 1913 c-3 -4 1 -19 9 -33 12 -22 13 -23 13 -5 1 24 -14 50 -22
38z"/>
<path d="M1365 1834 c-18 -19 -79 -136 -89 -174 -4 -14 11 9 34 50 23 41 51
90 62 108 21 35 19 41 -7 16z"/>
<path d="M650 1824 c0 -42 13 -124 20 -124 7 0 -6 130 -15 138 -3 3 -5 -3 -5
-14z"/>
<path d="M1484 1815 c4 -16 12 -34 17 -39 5 -6 5 4 -1 24 -12 42 -25 55 -16
15z"/>
<path d="M669 1588 c0 -51 -2 -104 -4 -118 -4 -37 -7 -113 -4 -125 1 -5 5 13
8 40 9 66 13 295 6 295 -3 0 -5 -42 -6 -92z"/>
<path d="M1242 1570 c-23 -74 -45 -171 -38 -177 2 -2 14 37 26 88 12 52 26
102 31 112 6 10 9 23 6 30 -2 7 -13 -17 -25 -53z"/>
<path d="M382 1479 c-1 -59 2 -129 8 -157 12 -67 64 -201 95 -247 14 -20 25
-42 25 -50 0 -14 18 -30 26 -23 7 7 -27 98 -37 98 -5 0 -9 5 -9 11 0 6 -12 26
-26 44 -36 48 -65 169 -74 310 l-7 120 -1 -106z"/>
<path d="M820 1383 c-8 -4 -45 -30 -81 -60 -36 -29 -70 -53 -74 -53 -5 0 -20
-10 -33 -22 l-24 -23 12 25 c6 14 24 34 40 45 20 13 25 22 17 27 -18 12 -24
10 -31 -9 -3 -10 -19 -38 -35 -63 -32 -48 -38 -65 -20 -54 7 4 10 3 7 -2 -2
-5 -12 -27 -22 -49 -10 -22 -26 -44 -35 -49 -14 -9 -12 -11 9 -16 21 -6 34 2
80 49 42 43 56 52 58 39 3 -15 11 -16 48 -11 24 3 44 3 44 -1 0 -16 -26 -33
-45 -29 -14 2 -16 1 -5 -4 22 -11 23 -33 2 -33 -10 0 -24 6 -32 13 -12 10 -12
9 -1 -5 12 -16 11 -18 -7 -18 -11 0 -22 -7 -26 -15 -3 -8 -11 -15 -17 -15 -8
0 -7 6 2 18 12 15 12 16 -2 5 -9 -7 -20 -9 -25 -5 -4 4 -3 0 4 -9 10 -13 9
-19 -3 -29 -8 -7 -13 -16 -10 -20 3 -5 -7 -18 -22 -30 -26 -20 -28 -20 -34 -3
-5 16 -7 16 -20 -5 -8 -12 -20 -22 -28 -22 -8 0 -12 -3 -8 -6 5 -6 -6 -21 -50
-70 -13 -14 -23 -31 -23 -39 0 -8 -11 -49 -25 -90 -27 -80 -44 -247 -31 -300
l7 -27 29 30 c16 17 30 28 33 26 2 -3 3 9 1 25 -2 17 1 33 6 36 15 9 50 -5 50
-20 0 -7 7 -15 15 -19 10 -3 15 -16 13 -35 -2 -30 5 -42 67 -109 35 -39 162
-102 204 -102 28 0 101 -25 101 -35 0 -8 -45 2 -68 14 -32 17 -83 14 -76 -4 3
-8 -3 -29 -14 -47 -20 -32 -62 -147 -62 -168 0 -5 11 -10 24 -10 20 0 24 6 30
39 3 22 11 43 16 46 7 4 8 -3 4 -22 -11 -47 -10 -48 23 -45 17 2 34 -2 38 -7
3 -6 11 -11 16 -11 6 0 7 4 4 10 -3 5 1 10 9 10 9 0 16 -3 16 -8 0 -4 47 -9
105 -11 76 -2 105 1 105 9 0 8 -9 10 -26 6 -17 -5 -23 -3 -19 4 3 5 0 10 -7
11 -7 0 -4 4 7 9 18 8 18 9 -5 9 -30 1 -45 11 -45 30 0 15 -99 55 -119 48 -6
-2 15 -11 46 -21 83 -24 83 -37 -1 -34 l-71 3 0 47 c0 26 4 49 9 53 6 3 25 -3
43 -13 18 -10 44 -21 58 -24 14 -3 33 -9 43 -13 13 -6 17 -2 17 18 0 16 7 26
20 30 11 3 20 12 20 20 0 15 29 32 38 22 3 -3 0 -35 -7 -71 -8 -36 -12 -66
-10 -68 2 -2 14 0 26 5 15 5 24 20 29 43 8 45 34 49 34 6 0 -25 4 -30 25 -30
28 0 29 -3 14 -32 -17 -32 -4 -66 27 -65 23 0 25 2 19 26 -4 14 -7 60 -7 102
-1 63 3 83 22 113 12 21 20 39 18 42 -3 2 -13 -12 -24 -31 -10 -19 -22 -35
-26 -35 -3 0 -9 -10 -11 -22 -2 -13 -5 0 -6 28 -1 35 4 56 14 64 8 7 15 21 15
32 0 25 48 118 61 118 17 0 53 -22 67 -42 7 -10 20 -18 29 -18 8 0 -7 18 -33
40 -37 30 -48 46 -46 63 3 18 1 20 -9 9 -7 -6 -20 -12 -28 -12 -12 0 -12 3 -3
12 7 7 12 26 12 44 0 28 4 33 30 39 33 7 67 -1 87 -20 6 -7 31 -13 55 -13 l43
0 -60 24 c-105 41 -183 26 -172 -33 3 -15 -2 -27 -12 -32 -14 -9 -14 -11 2
-28 16 -19 16 -22 -14 -76 -37 -70 -98 -123 -160 -141 -64 -19 -89 -34 -89
-51 0 -14 -9 -17 -45 -17 -32 0 -36 3 -30 21 6 21 -27 36 -130 60 -101 24
-215 125 -233 209 -11 46 -5 85 10 76 17 -11 48 28 48 61 0 31 25 65 48 65 7
0 6 -9 -4 -27 -17 -34 -18 -54 -2 -90 28 -66 60 -79 96 -40 26 27 28 37 7 37
-19 0 -20 19 0 26 22 9 14 65 -15 96 -29 31 -125 53 -115 26 4 -9 -4 -19 -19
-26 -15 -7 -28 -23 -32 -39 -11 -53 -15 -63 -25 -63 -12 0 -11 98 2 179 15 95
59 201 87 212 12 5 26 17 29 26 12 31 48 63 99 89 47 24 48 25 14 19 -31 -5
-33 -4 -16 7 49 34 65 50 60 61 -7 20 274 13 314 -7 41 -21 59 -20 65 4 3 11
13 20 22 20 15 0 15 -2 1 -22 -18 -26 -21 -48 -5 -48 5 0 8 4 5 8 -3 5 2 19
11 32 16 22 17 22 24 4 7 -18 7 -18 14 -1 18 44 -67 136 -123 135 -15 -1 -45
9 -67 21 -27 15 -32 20 -15 16 22 -5 23 -4 7 5 -10 7 -25 9 -33 6 -8 -3 -14
-2 -14 3 0 10 -129 41 -166 40 -16 0 -36 -3 -44 -6z m106 -38 c-3 -8 -1 -15 4
-15 6 0 10 6 10 13 0 8 2 9 8 1 4 -6 25 -14 47 -17 62 -8 156 -45 197 -78 28
-22 36 -25 31 -12 -4 13 -3 15 6 7 14 -13 4 -44 -15 -44 -8 0 -19 -9 -26 -19
-7 -11 -17 -17 -23 -12 -32 24 -175 39 -375 41 -13 0 -13 1 0 10 8 5 10 10 4
10 -6 0 -11 7 -11 15 0 8 4 15 8 15 5 0 6 7 2 16 -3 9 0 20 8 26 10 7 5 8 -15
3 -35 -7 -139 -107 -164 -156 -9 -18 -23 -35 -31 -37 -10 -3 -8 6 7 30 12 20
22 45 22 57 0 13 6 21 18 21 9 0 50 32 90 70 l73 70 65 0 c55 0 65 -3 60 -15z
m-346 -415 c-26 -48 -51 -174 -51 -260 -1 -50 -5 -87 -10 -84 -5 3 -6 -10 -3
-28 l5 -33 -17 35 c-9 19 -18 30 -20 24 -3 -6 -27 -34 -54 -62 l-50 -52 0 55
c0 30 6 74 14 97 8 24 19 68 26 98 7 30 24 75 38 100 14 25 33 61 43 79 12 22
31 39 51 46 40 14 43 12 28 -15z m146 -388 c-10 -2 -22 0 -28 6 -6 6 0 7 19 4
21 -5 23 -7 9 -10z m399 -301 c-3 -6 -23 -11 -43 -10 l-37 1 40 12 c43 14 51
13 40 -3z m-318 -68 c2 -6 -4 -19 -14 -29 -17 -17 -18 -17 -21 0 -8 37 24 63
35 29z m170 -9 c-3 -3 -12 -4 -19 -1 -8 3 -5 6 6 6 11 1 17 -2 13 -5z m-40
-10 c-3 -3 -12 -4 -19 -1 -8 3 -5 6 6 6 11 1 17 -2 13 -5z m53 -14 c0 -5 -2
-10 -4 -10 -3 0 -8 5 -11 10 -3 6 -1 10 4 10 6 0 11 -4 11 -10z m-42 -87 c-10
-2 -28 -2 -40 0 -13 2 -5 4 17 4 22 1 32 -1 23 -4z"/>
<path d="M805 1340 c-15 -6 -8 -9 28 -9 26 -1 47 4 47 9 0 12 -47 12 -75 0z"/>
<path d="M1453 1334 c-11 -27 -34 -68 -51 -90 -25 -34 -35 -41 -55 -37 -14 3
-33 0 -44 -6 -15 -9 -13 -10 14 -11 27 0 35 -6 48 -32 8 -18 30 -61 49 -96 19
-35 40 -75 46 -90 6 -15 22 -47 36 -72 19 -35 23 -39 19 -17 -3 15 -16 51 -29
80 -14 29 -28 66 -32 82 -4 17 -22 47 -40 68 -38 41 -43 76 -16 100 23 21 85
143 80 158 -2 7 -13 -10 -25 -37z"/>
<path d="M850 1131 c-11 -8 -3 -11 33 -11 27 0 94 -9 149 -20 55 -12 102 -19
104 -17 3 2 -28 13 -68 25 -88 25 -197 37 -218 23z"/>
<path d="M1100 1134 c61 -23 101 -32 98 -22 -4 12 -22 17 -78 24 -19 2 -28 1
-20 -2z"/>
<path d="M1257 1084 l6 -38 -26 17 c-31 20 -89 23 -82 5 3 -7 35 -29 71 -48
l66 -35 -6 -51 c-3 -28 -1 -87 5 -130 7 -44 15 -106 18 -139 5 -38 10 -54 15
-44 4 9 2 54 -5 100 -6 46 -13 143 -15 216 -4 124 -6 134 -29 159 l-24 26 6
-38z m-32 -35 c5 -5 -5 -4 -23 2 -17 6 -32 13 -32 16 0 7 43 -8 55 -18z m65
-9 c0 -11 -2 -20 -4 -20 -2 0 -6 9 -9 20 -3 11 -1 20 4 20 5 0 9 -9 9 -20z"/>
<path d="M580 1045 c-7 -9 -10 -18 -7 -21 3 -3 10 4 17 15 13 25 8 27 -10 6z"/>
<path d="M1090 915 c0 -8 4 -15 8 -15 5 0 9 7 9 15 0 8 -4 15 -9 15 -4 0 -8
-7 -8 -15z"/>
<path d="M645 901 c-3 -5 0 -13 6 -17 7 -4 9 -3 5 4 -4 6 5 12 21 15 l28 4
-27 2 c-15 0 -29 -3 -33 -8z"/>
<path d="M1115 744 c-16 -8 -34 -22 -38 -30 -4 -8 -14 -14 -21 -14 -8 0 -20
-7 -27 -17 -13 -15 -11 -16 16 -9 17 4 48 16 71 27 55 26 75 24 33 -4 -25 -17
-35 -31 -37 -56 -5 -47 15 -87 48 -101 35 -14 50 -7 43 20 -4 15 0 20 16 20
12 0 24 8 27 18 3 9 9 24 14 34 12 22 -21 90 -54 112 -31 20 -53 20 -91 0z
m65 -154 c8 -5 11 -10 5 -10 -5 0 -17 5 -25 10 -8 5 -10 10 -5 10 6 0 17 -5
25 -10z"/>
<path d="M1054 735 c-10 -8 -14 -15 -8 -15 6 0 17 7 24 15 16 19 9 19 -16 0z"/>
<path d="M1570 661 c0 -17 4 -32 8 -35 4 -2 6 11 4 30 -5 42 -12 45 -12 5z"/>
<path d="M1576 575 c4 -9 -13 -34 -43 -65 -52 -55 -61 -70 -44 -70 6 0 11 5
11 10 0 6 9 10 19 10 25 0 36 -33 20 -62 -8 -16 -14 -19 -17 -10 -2 8 1 19 7
25 23 23 10 29 -14 7 -14 -13 -24 -31 -23 -39 3 -17 -20 -20 -61 -7 -16 6 -21
5 -17 -3 4 -5 22 -13 42 -17 l35 -6 -7 -47 c-7 -46 -40 -119 -107 -237 l-34
-61 28 -1 c15 0 32 5 38 12 16 19 78 169 85 207 13 63 40 144 53 157 7 7 13
22 13 33 0 11 7 35 14 54 8 19 11 35 6 35 -5 0 -12 -9 -15 -20 -7 -23 -18 -25
-34 -7 -8 10 -2 21 24 47 33 32 47 70 25 70 -5 0 -7 -7 -4 -15z m-167 -504
c-18 -33 -35 -58 -37 -56 -2 2 11 31 29 64 18 33 35 58 37 56 2 -2 -11 -31
-29 -64z"/>
<path d="M1524 554 c-18 -14 -18 -15 4 -4 12 6 22 13 22 15 0 8 -5 6 -26 -11z"/>
<path d="M893 553 c-18 -7 -16 -23 1 -23 8 0 17 -8 19 -17 4 -17 5 -17 6 0 1
11 9 17 24 17 21 1 22 1 3 15 -20 15 -32 17 -53 8z"/>
<path d="M1160 480 c0 -5 6 -10 14 -10 8 0 18 5 21 10 3 6 -3 10 -14 10 -12 0
-21 -4 -21 -10z"/>
<path d="M470 435 c-26 -26 -37 -32 -47 -24 -10 9 -13 7 -13 -8 0 -10 -6 -25
-12 -33 -11 -12 -10 -12 5 -1 9 7 17 11 17 7 0 -3 8 1 18 8 70 57 82 69 82 77
0 17 -16 9 -50 -26z"/>
<path d="M1015 460 c-3 -5 -1 -10 4 -10 6 0 11 5 11 10 0 6 -2 10 -4 10 -3 0
-8 -4 -11 -10z"/>
<path d="M1410 427 c8 -9 29 -18 45 -21 17 -4 23 -3 15 0 -8 4 -28 13 -45 21
-27 14 -29 14 -15 0z"/>
<path d="M445 310 c13 -42 76 -192 106 -253 18 -34 36 -57 46 -57 14 0 15 2 1
18 -26 30 -69 114 -108 210 -36 90 -61 134 -45 82z"/>
</g>
</svg>
